<?xml version="1.0" standalone="no"?>
<!DOCTYPE svg PUBLIC "-//W3C//DTD SVG 20010904//EN"
 "http://www.w3.org/TR/2001/REC-SVG-20010904/DTD/svg10.dtd">
<svg version="1.0" xmlns="http://www.w3.org/2000/svg"
 width="480.000000pt" height="480.000000pt" viewBox="0 0 480.000000 480.000000"
 preserveAspectRatio="xMidYMid meet">

<g transform="translate(0.000000,480.000000) scale(0.100000,-0.100000)"
fill="#000000" stroke="none">
<path d="M1382 3360 c-41 -25 -66 -81 -57 -128 5 -27 32 -61 111 -142 l104
-107 0 -414 1 -414 99 -72 100 -73 0 -175 0 -175 281 0 c262 0 280 1 276 18
-3 9 -43 187 -88 394 l-83 378 -171 2 -170 3 -3 320 -2 320 -128 129 c-158
160 -198 180 -270 136z m190 -187 l118 -117 0 -410 0 -411 93 -70 c61 -47 92
-77 92 -90 0 -39 -36 -26 -140 51 l-105 77 0 410 0 411 -111 112 c-99 101
-109 115 -99 133 6 12 16 21 22 21 6 0 64 -53 130 -117z m525 -1008 c23 -104
53 -241 66 -302 l25 -113 -179 0 -179 0 0 104 0 103 38 7 c43 6 76 37 93 84
18 52 -3 95 -72 148 l-59 45 0 60 0 60 112 -3 113 -3 42 -190z"/>
<path d="M2895 2725 c-5 -2 -22 -6 -38 -9 -41 -9 -103 -71 -123 -122 -12 -31
-15 -59 -11 -93 3 -28 49 -186 102 -353 54 -167 106 -331 117 -366 22 -71 74
-137 125 -159 50 -20 122 -16 168 10 42 24 85 86 85 125 0 20 -5 22 -45 22
-39 0 -47 -3 -55 -24 -37 -97 -180 -51 -180 57 0 141 177 198 283 91 44 -43
59 -81 59 -143 0 -99 -47 -179 -134 -227 l-53 -29 -727 -3 -728 -3 0 -44 0
-45 743 2 742 3 63 34 c75 41 125 94 161 170 22 47 26 70 26 141 l0 85 -189
390 c-184 380 -220 440 -276 470 -27 13 -98 26 -115 20z m84 -108 c19 -9 57
-80 158 -286 73 -150 133 -276 133 -280 0 -4 -25 -6 -55 -3 -75 6 -137 -13
-189 -59 l-43 -38 -87 277 c-47 152 -86 288 -86 302 0 28 24 69 49 85 38 24
73 24 120 2z"/>
</g>
</svg>
